[img]http://img39.imageshack.us/img39/4084/ohnywx.jpg[/img]

Genre:
Action | Adventure | Sci-Fi 

Release Date:
30 April 2010 (UK)

Cast
  (Cast overview, first billed only)

	Robert Downey Jr.	... 	Tony Stark

	Don Cheadle	... 	Lt. Col. James 'Rhodey' Rhodes / War Machine

	Scarlett Johansson	... 	Natalie Rushman / Natasha Romanoff

	Gwyneth Paltrow	... 	Pepper Potts

	Sam Rockwell	... 	Justin Hammer

	Mickey Rourke	... 	Ivan Vanko

	Samuel L. Jackson	... 	Nick Fury

	Clark Gregg	... 	Agent Coulson

	John Slattery	... 	Howard Stark

	Jon Favreau	... 	Happy Hogan

	Paul Bettany	... 	Jarvis (voice)

	Kate Mara	... 	U.S. Marshal

	Leslie Bibb	... 	Christine Everhart

	Garry Shandling	... 	Senator Stern

	Christiane Amanpour	... 	Herself

General
mp4
Format                           : MPEG-4
Format profile                   : Base Media
Codec ID                         : isom
File size                        : 894 MiB
Duration                         : 1h 59mn
Overall bit rate                 : 1 044 Kbps
Encoded date                     : UTC 2010-09-04 17:15:55
Tagged date                      : UTC 2010-09-04 17:15:55

Video
ID                               : 1
Format                           : AVC
Format/Info                      : Advanced Video Codec
Format profile                   : High@L5.0
Format settings, CABAC           : Yes
Format settings, ReFrames        : 6 frames
Codec ID                         : avc1
Codec ID/Info                    : Advanced Video Coding
Duration                         : 1h 59mn
Bit rate mode                    : Variable
Bit rate                         : 848 Kbps
Maximum bit rate                 : 5 301 Kbps
Width                            : 720 pixels
Height                           : 304 pixels
Display aspect ratio             : 2.35:1
Frame rate mode                  : Constant
Frame rate                       : 25.000 fps
Color space                      : YUV
Chroma subsampling               : 4:2:0
Bit depth                        : 8 bits
Scan type                        : Progressive
Bits/(Pixel*Frame)               : 0.155
Stream size                      : 726 MiB (81%)
Title                            : rx-im2-readnfo
Writing library                  : x264 core 104 r1683 62997d6               
Encoded date                     : UTC 2010-09-04 17:15:55
Tagged date                      : UTC 2010-09-04 17:16:34

Audio
ID                               : 2
Format                           : AAC
Format/Info                      : Advanced Audio Codec
Format version                   : Version 4
Format profile                   : LC
Format settings, SBR             : Yes
Format settings, PS              : No
Codec ID                         : 40
Duration                         : 1h 59mn
Bit rate mode                    : Variable
Bit rate                         : 192 Kbps
Maximum bit rate                 : 214 Kbps
Channel(s)                       : 6 channels
Channel positions                : Front: L C R, Side: L R, LFE
Sampling rate                    : 48.0 KHz
Stream size                      : 165 MiB (18%)
Title                            : Imported with GPAC 0.4.6-DEV (internal rev. 5)
Encoded date                     : UTC 2010-09-04 17:16:30
Tagged date                      : UTC 2010-09-04 17:16:34


Thanks for the source RX

Screens: 
http://img269.imageshack.us/img269/2446/2j1oaap.png 
http://img15.imageshack.us/img15/813/2gudqgx.png 
http://img217.imageshack.us/img217/4522/2ivehea.png 
http://img59.imageshack.us/img59/1135/4rxfa1.png 
http://img217.imageshack.us/img217/940/kclbi9.png
